<?xml version="1.0" encoding="UTF-8" standalone="no"?>
<svg width="24px" height="24px" viewBox="0 0 24 24" version="1.1" xmlns="http://www.w3.org/2000/svg" xmlns:xlink="http://www.w3.org/1999/xlink">
    <!-- Generator: sketchtool 40.3 (33839) - http://www.bohemiancoding.com/sketch -->
    <title>0D9DCCC7-BCA4-4807-B1D8-82D1C68E02FE</title>
    <desc>Created with sketchtool.</desc>
    <defs>
        <rect id="path-1" x="1" y="1" width="22" height="22" rx="4"></rect>
        <mask id="mask-2" maskContentUnits="userSpaceOnUse" maskUnits="objectBoundingBox" x="0" y="0" width="22" height="22" fill="white">
            <use xlink:href="#path-1"></use>
        </mask>
    </defs>
    <g id="UI-KIt" stroke="none" stroke-width="1" fill="none" fill-rule="evenodd">
        <g id="UI-Kit-v1" transform="translate(-677.000000, -1007.000000)"></g>
        <g id="24_Icon_LinkedIn">
            <rect id="Rectangle-4" opacity="0" x="0" y="0" width="24" height="24"></rect>
            <rect id="Rectangle" x="0" y="0" width="24" height="24"></rect>
            <g id="Page-1" transform="translate(5.000000, 6.000000)">
                <path d="M2,2.5 C1.2768595,2.5 0.75,1.90697674 0.75,1.24935401 C0.75,0.524547804 1.34142562,0 2,0 C2.7231405,0 3.25,0.591731266 3.25,1.24935401 C3.25,1.90697674 2.65857438,2.5 2,2.5" id="Fill-3" fill="#000000"></path>
                <path d="M2,12.0795288 L2,4.07952881" id="Stroke-5" stroke="#000000" stroke-width="1.5" stroke-linejoin="round"></path>
                <path d="M6,12 L6,4" id="Stroke-7" stroke="#000000" stroke-width="1.5" stroke-linejoin="round"></path>
                <path d="M5.99713135,8.0020142 C5.99713135,6.4686597 7.3657708,5.00891113 8.99856567,5.00891113 C10.6313606,5.00891113 12,6.46865966 12,8.00201416 L12,12.0795288" id="Stroke-9" stroke="#000000" stroke-width="1.5" stroke-linejoin="round"></path>
            </g>
            <use id="Rectangle-3" stroke="#000000" mask="url(#mask-2)" stroke-width="3" xlink:href="#path-1"></use>
        </g>
    </g>
</svg>