<?xml version="1.0" encoding="UTF-8" standalone="no"?>
<svg width="24px" height="24px" viewBox="0 0 24 24" version="1.1" xmlns="http://www.w3.org/2000/svg" xmlns:xlink="http://www.w3.org/1999/xlink">
    <!-- Generator: sketchtool 40.3 (33839) - http://www.bohemiancoding.com/sketch -->
    <title>A8739F9D-8AAC-4068-B75F-C10CB37467A8</title>
    <desc>Created with sketchtool.</desc>
    <defs></defs>
    <g id="UI-KIt" stroke="none" stroke-width="1" fill="none" fill-rule="evenodd">
        <g id="UI-Kit-v1" transform="translate(-541.000000, -1007.000000)"></g>
        <g id="24_Icon_Facebook">
            <rect id="Rectangle" x="0" y="0" width="24" height="24"></rect>
            <path d="M19.9915402,22 C21.1007819,22 22,21.1017876 22,20.0092049 L22,3.99079514 C22,2.89130934 21.1017876,2 20.0092049,2 L3.99079514,2 C2.89130934,2 2,2.89821238 2,3.99079514 L2,20.0092049 C2,21.1086907 2.89708678,22 3.99060873,22 L11.7208134,22 L11.7553478,15.2177671 L9.02097765,15.2177671 L9.02097765,12.0532713 L11.7553478,12.0532713 L11.7553478,9.71488987 C11.7553478,7.0078293 13.4109901,5.53311282 15.8278866,5.53311282 C16.9851294,5.53311282 17.9802216,5.61674836 18.2703857,5.65600586 L18.2703857,8.48766632 L16.5925544,8.48766632 C15.2816953,8.48766632 15.0256681,9.1123726 15.0256681,10.0306567 L15.0256681,12.0481508 L18.1577338,12.0481508 L17.751504,15.2160603 L15.0256681,15.2160603 L14.9911337,22 L19.9915402,22 Z" id="Stroke-3" stroke="#000000" stroke-width="1.5" stroke-linecap="round" stroke-linejoin="round"></path>
        </g>
    </g>
</svg>