<svg id="Layer_1" data-name="Layer 1" xmlns="http://www.w3.org/2000/svg" viewBox="0 0 68.48 23.89"><g id="XCzAIi.tif"><path d="M21.31,47.23a1.56,1.56,0,0,0-.16-.2l-5.43-5.42c-.87-.87-1.23-.88-2.1,0L8.24,47a.36.36,0,0,1-.55.07,13,13,0,0,1-4.5-5,2.39,2.39,0,0,1,.22-.23C5,40.18,6.58,38.62,8.13,37a2.33,2.33,0,0,1,1.81-.73q4.72,0,9.45,0A2.3,2.3,0,0,1,21.2,37c1.54,1.59,3.12,3.15,4.71,4.71a.4.4,0,0,1,.07.58A12.83,12.83,0,0,1,21.66,47l-.28.22Z" transform="translate(-1.84 -23.33)"/><path d="M1.84,36.23A12.4,12.4,0,0,1,7.33,25.75,12.22,12.22,0,0,1,21,25.13c4.28,2.4,6.3,6.25,6.5,11.12a1.66,1.66,0,0,1-.26,0c-1.74,0-3.48,0-5.21,0-1.06,0-1.42-.3-1.72-1.31a5.81,5.81,0,0,0-11.21-.31c-.06.17-.1.35-.16.53A1.31,1.31,0,0,1,7.6,36.26c-1.89,0-3.77,0-5.65,0C1.93,36.29,1.91,36.27,1.84,36.23Z" transform="translate(-1.84 -23.33)"/><path d="M37.84,34.87v6.74a3,3,0,0,1-.05.59.79.79,0,0,1-.76.69h-.94a1.56,1.56,0,0,1-1.57-1.56V31.21l1.56-1.57h0A3.79,3.79,0,0,1,39,30.93q2.85,3.27,5.72,6.53l.3.32V31a3.82,3.82,0,0,1,0-.59.78.78,0,0,1,.73-.72l1,0a1.56,1.56,0,0,1,1.57,1.56V41.34a1.54,1.54,0,0,1-1.55,1.55c-.45,0-.89,0-1.34,0a1.48,1.48,0,0,1-1-.62l-5.26-6-1.25-1.42Z" transform="translate(-1.84 -23.33)"/><path d="M70.31,36.28a7.1,7.1,0,1,1-7.1-7A7,7,0,0,1,70.31,36.28Zm-3.41,0A3.68,3.68,0,1,0,63.25,40,3.68,3.68,0,0,0,66.9,36.28Z" transform="translate(-1.84 -23.33)"/><path d="M54.06,42.89H50.75v-12a3.18,3.18,0,0,1,0-.62.73.73,0,0,1,.67-.63c.86,0,1.72,0,2.59,0Z" transform="translate(-1.84 -23.33)"/></g></svg>