<svg xmlns="http://www.w3.org/2000/svg" width="28" height="20" viewBox="0 0 28 20">
    <g fill="none" fill-rule="evenodd">
        <rect width="28" height="20" fill="#00BEBE" rx="2"/>
        <g fill="#FFF">
            <path d="M10.189 10.239c.221-.227.19-.418.408-.95.196-.482.503-.907.889-1.25a3.708 3.708 0 0 1 2.462-.923c.896 0 1.781.317 2.462.923.386.343.693.768.89 1.25.216.532.185.723.407.95.216.22.443.272 1.148.272h3.04c0-2.17-.986-4.158-2.574-5.535C17.824 3.678 15.896 3 13.948 3c-1.949 0-3.876.678-5.373 1.976C6.986 6.353 6 8.34 6 10.511h3.04c.706 0 .933-.052 1.149-.272zM18.027 16.948l-3.383-3.197c-.307-.291-.444-.404-.61-.452a.503.503 0 0 0-.15-.026.51.51 0 0 0-.15.026c-.167.048-.304.16-.612.452l-3.383 3.197a7.69 7.69 0 0 1-2.977-3.074l2.936-2.775c.614-.58.562-.56 1.432-.56h5.507c.87 0 .817-.02 1.431.56l2.937 2.775a7.689 7.689 0 0 1-2.978 3.074z"/>
        </g>
    </g>
</svg>
