<?xml version="1.0" encoding="UTF-8" standalone="no"?>
<svg width="24px" height="24px" viewBox="0 0 24 24" version="1.1" xmlns="http://www.w3.org/2000/svg" xmlns:xlink="http://www.w3.org/1999/xlink">
    <!-- Generator: sketchtool 40.3 (33839) - http://www.bohemiancoding.com/sketch -->
    <title>7C4A7902-9749-4C35-B54A-D70D8B63791E</title>
    <desc>Created with sketchtool.</desc>
    <defs></defs>
    <g id="UI-KIt" stroke="none" stroke-width="1" fill="none" fill-rule="evenodd">
        <g id="UI-Kit-v1" transform="translate(-643.000000, -1007.000000)"></g>
        <g id="24_Icon_Twitter">
            <rect id="Rectangle-4" opacity="0" x="0" y="0" width="24" height="24"></rect>
            <rect id="Rectangle" x="0" y="0" width="24" height="24"></rect>
            <path d="M21.0553527,4.9457126 C20.0876116,5.1815801 19.7176384,5.10828885 18.7859373,5.29210065 C18.0396533,4.49712129 16.9771837,4 15.8007346,4 C13.5423511,4 11.7108551,5.83149598 11.7108551,8.08907682 C11.7108551,8.41001169 11.7467078,8.72218407 11.8168747,9.02158058 C8.41789477,8.85054464 5.40399659,7.2231948 3.38715035,4.74869196 C3.03591462,5.35310369 2.83337382,6.05510692 2.83337382,6.80420022 C2.83337382,8.22305609 3.55537694,9.47569206 4.65329795,10.2083975 C3.98233136,10.1876618 3.35210035,10.0035155 2.80113317,9.69689498 C2.80053117,9.71408553 2.80053117,9.73080785 2.80053117,9.74913552 C2.80053117,11.7297278 4.21015632,13.3833651 6.08151833,13.758079 C5.7378411,13.8517909 5.37630442,13.9020247 5.003129,13.9020247 C4.73998649,13.9020247 4.48366668,13.8761386 4.23450403,13.8282458 C4.75517036,15.4532545 6.2649288,16.6356567 8.05488652,16.6687669 C6.65522788,17.7658853 4.89189209,18.41926 2.97551358,18.41926 C2.64581621,18.41926 2.3201322,18.400531 2,18.3626716 C3.80995763,19.5227997 5.95911091,20.1997194 8.26899918,20.1997194 C15.7911694,20.1997194 19.904594,13.9678438 19.904594,8.56392398 C19.904594,8.38693488 21.210826,7.06930008 21.7581812,6.24923724 C22.7739827,4.77810552 22.0230938,4.70984509 21.0553527,4.9457126 Z" id="Page-1" stroke="#000000" stroke-width="1.5" stroke-linecap="round" stroke-linejoin="round"></path>
        </g>
    </g>
</svg>