<?xml version="1.0" encoding="UTF-8" standalone="no"?>
<svg width="24px" height="24px" viewBox="0 0 24 24" version="1.1" xmlns="http://www.w3.org/2000/svg" xmlns:xlink="http://www.w3.org/1999/xlink">
    <!-- Generator: sketchtool 40.3 (33839) - http://www.bohemiancoding.com/sketch -->
    <title>49482F3F-8552-4CC5-97E2-6311EAFE28FB</title>
    <desc>Created with sketchtool.</desc>
    <defs>
        <rect id="path-1" x="1" y="1" width="22" height="22" rx="6"></rect>
        <mask id="mask-2" maskContentUnits="userSpaceOnUse" maskUnits="objectBoundingBox" x="0" y="0" width="22" height="22" fill="white">
            <use xlink:href="#path-1"></use>
        </mask>
    </defs>
    <g id="UI-KIt" stroke="none" stroke-width="1" fill="none" fill-rule="evenodd">
        <g id="UI-Kit-v1" transform="translate(-575.000000, -1007.000000)"></g>
        <g id="24_Icon_Instagram">
            <rect id="Rectangle" x="0" y="0" width="24" height="24"></rect>
            <g id="Page-1" transform="translate(8.000000, 5.000000)">
                <path d="M8,7 C8,9.20863065 6.20863065,11 4,11 C1.79001019,11 1.77635684e-15,9.20863065 1.77635684e-15,7 C1.77635684e-15,4.79001019 1.79001019,3 4,3 C6.20863065,3 8,4.79001019 8,7 L8,7 Z" id="Stroke-3" stroke="#000000" stroke-width="1.5" stroke-linecap="round" stroke-linejoin="round"></path>
                <path d="M10.5956923,1.65688701 C10.5956923,2.37376015 10.0143388,2.95473316 9.29699622,2.95473316 C8.58135348,2.95473316 8,2.37376015 8,1.65688701 C8,0.940013871 8.58135348,0.359040854 9.29699622,0.359040854 C10.0143388,0.359040854 10.5956923,0.940013871 10.5956923,1.65688701" id="Fill-5" fill="#000000"></path>
            </g>
            <use id="Rectangle-3" stroke="#000000" mask="url(#mask-2)" stroke-width="3" xlink:href="#path-1"></use>
        </g>
    </g>
</svg>