<svg id="Layer_2" data-name="Layer 2" xmlns="http://www.w3.org/2000/svg" viewBox="0 0 25.67 23.89"><path d="M42.64,48a1.56,1.56,0,0,0-.16-.2l-5.43-5.42c-.88-.87-1.23-.88-2.1,0q-2.7,2.69-5.39,5.38a.35.35,0,0,1-.54.07,13,13,0,0,1-4.5-5l.21-.23c1.58-1.58,3.17-3.14,4.73-4.74A2.32,2.32,0,0,1,31.27,37q4.73,0,9.45,0a2.28,2.28,0,0,1,1.8.73c1.55,1.59,3.13,3.15,4.71,4.71a.4.4,0,0,1,.08.58A12.86,12.86,0,0,1,43,47.73L42.7,48Z" transform="translate(-23.16 -24.05)"/><path d="M23.16,37a12.39,12.39,0,0,1,5.5-10.48,12.22,12.22,0,0,1,13.68-.62c4.27,2.4,6.3,6.25,6.5,11.12a1.86,1.86,0,0,1-.26,0c-1.74,0-3.48,0-5.22,0-1,0-1.42-.3-1.71-1.31a5.82,5.82,0,0,0-11.22-.31l-.15.53A1.32,1.32,0,0,1,28.92,37c-1.88,0-3.76,0-5.64,0Z" transform="translate(-23.16 -24.05)"/></svg>